<?xml version="1.0" encoding="UTF-8"?>
<!DOCTYPE svg PUBLIC "-//W3C//DTD SVG 1.1//EN" "http://www.w3.org/Graphics/SVG/1.1/DTD/svg11.dtd">
<svg xmlns="http://www.w3.org/2000/svg" version="1.1" width="3131px" height="833px" style="shape-rendering:geometricPrecision; text-rendering:geometricPrecision; image-rendering:optimizeQuality; fill-rule:evenodd; clip-rule:evenodd" xmlns:xlink="http://www.w3.org/1999/xlink">
<g><path fill="#ffffff" stroke="#ffffff" stroke-width="0.5" d="M 5.23,300.99 c 0.23,-0.78 0.67,-1.43 1.31,-1.94 c 5.67,-4.42 26.61,-24.47 30.95,-26.51 c 39.63,4.12 79.49,8.64 119,13.28 c 0.89,0.12 1.51,-0.23 1.86,-1.05 c 0.68,-2.76 1.11,-5.56 1.31,-8.39 c -0.02,-1.07 -0.56,-1.68 -1.65,-1.85 c -35.48,-6.17 -70.94,-12.41 -106.38,-18.72 c -0.56,-0.54 -0.52,-1.08 0.1,-1.61 c 2.99,-1.65 17.68,-14.94 19.6,-14.69 c 28.45,7.37 56.89,14.8 85.32,22.28 c 1.84,0.58 3.72,0.91 5.63,0.98 c 0.45,-0.3 0.73,-0.71 0.84,-1.24 c 2.91,-9.01 6.51,-17.74 10.82,-26.17 c 0.48,-1.53 -0.03,-2.6 -1.52,-3.24 c -26.27,-15.71 -52.48,-31.5 -78.63,-47.39 c -0.51,-0.64 -0.81,-1.38 -0.88,-2.21 c -0.49,-7.67 -1.34,-15.3 -2.54,-22.89 c 0.54,-0.92 1.54,-0.03 2.18,0.29 c 29.1,20.97 58.24,41.88 87.42,62.74 c 0.71,0.28 1.36,0.19 1.95,-0.28 c 1.61,-2.35 3.23,-4.68 4.87,-6.99 c 0.16,-1.09 -0.23,-1.92 -1.17,-2.51 c -30.97,-24.67 -61.91,-49.4 -92.8,-74.17 c -2.23,-3.38 -2.93,-36.24 -2.96,-42.25 c -0.01,-0.6 0.25,-1.04 0.76,-1.34 c 13.22,0.7 26.45,1.46 39.68,2.3 c 1.06,0.02 1.99,0.37 2.8,1.06 c 24.94,31.1 49.8,62.26 74.57,93.49 c 0.42,0.55 0.98,0.79 1.68,0.71 c 2.26,-1.67 4.55,-3.31 6.86,-4.93 c 0.79,-0.82 0.94,-1.75 0.45,-2.79 c -20.3,-29 -40.63,-57.98 -61.01,-86.94 c -0.74,-0.79 -1.47,-2.99 0.44,-2.51 c 3.6,0.41 21.99,1.62 23.68,3.28 c 15.43,25.88 30.71,51.86 45.84,77.94 c 0.88,0.99 1.62,3.81 3.43,2.93 c 8.6,-4.71 17.6,-8.47 26.98,-11.29 c 0.46,-0.16 0.77,-0.47 0.94,-0.92 c -0.62,-3.61 -1.36,-7.21 -2.24,-10.79 c -6.86,-26.68 -13.54,-53.41 -20.03,-80.18 c 0.1,-2.82 12.18,-16.43 14.71,-19.59 c 0.45,-0.68 0.98,-0.8 1.61,-0.37 c 0.92,3.19 1.4,6.45 1.45,9.77 c 5.95,32.16 10.68,65.03 16.39,97.25 c 0.19,0.89 0.74,1.32 1.64,1.28 c 2.86,-0.44 5.71,-0.91 8.55,-1.41 c 0.6,-0.48 0.86,-1.12 0.77,-1.91 c -0.92,-4.71 -0.51,-9.34 -1.96,-13.99 c -3.32,-35.2 -7.92,-70.38 -11.36,-105.51 c 8.93,-10.43 18.02,-20.73 27.26,-30.91 c 0.41,-0.54 0.96,-0.82 1.63,-0.83 c 8.66,9.54 17.28,19.15 25.84,28.83 c 0.59,0.91 2.48,2.32 2.45,3.48 c -4,29.51 -6.37,59.37 -10.31,88.97 c 0.34,5.17 -4.02,28.69 -2.86,31.49 c 2.99,0.73 6.03,1.27 9.12,1.63 c 1.01,-0.09 1.61,-0.65 1.8,-1.67 c 5.83,-35.21 12.52,-70.39 18.42,-105.55 c 0.23,-1.46 0.85,-1.67 1.88,-0.64 c 4.53,5.75 9.09,11.48 13.7,17.17 c 0.53,0.76 0.79,1.6 0.77,2.53 c -7.59,29.67 -15.03,59.54 -23.23,89.05 c -0.24,0.61 -0.22,1.22 0.05,1.82 c 5.36,1.91 10.7,3.94 16.03,6.06 c 4.08,1.71 8.06,3.62 11.95,5.73 c 0.55,0.22 1.07,0.17 1.55,-0.17 c 12.11,-19.83 24.08,-39.74 35.92,-59.72 c 2.07,6.13 -0.33,22.03 -0.65,29.23 c -1,5.26 -20.2,29.11 -24.21,35.46 c -0.83,1 -0.87,2.01 -0.1,3.03 c 2.17,1.53 4.33,3.08 6.47,4.66 c 1.02,0.44 1.91,0.27 2.69,-0.51 c 2.81,-3.53 5.61,-7.07 8.4,-10.64 c 1.57,-1.74 2.18,-1.42 1.84,0.97 c -25.46,120.61 -118.57,212.56 -239.59,236.21 c -1.03,0.14 -2.03,0.04 -2.99,-0.29 c 12.41,-9.73 24.76,-19.53 37.04,-29.42 c 0.42,-0.65 0.46,-1.33 0.12,-2.04 c -1.64,-2.35 -3.34,-4.65 -5.1,-6.9 c -0.61,-0.49 -1.27,-0.54 -1.98,-0.14 c -20.27,14.4 -40.95,28.3 -61,42.97 c -8.58,1.02 -17.18,1.36 -25.82,1.03 c -0.57,-0.25 -0.87,-0.69 -0.89,-1.32 c 0.08,-2.8 -0.24,-5.32 2.73,-6.6 c 25.41,-14.91 50.83,-29.79 76.27,-44.65 c 1.11,-0.87 3.89,-1.69 2.92,-3.6 c -1.8,-3.44 -3.53,-6.92 -5.19,-10.43 c -2.39,-5.51 -4.52,-11.1 -6.41,-16.78 c -1.32,-0.48 -2.66,-0.49 -4.01,-0.02 c -29.17,7.24 -58.34,14.47 -87.51,21.69 c -0.92,0 -1.74,-0.29 -2.45,-0.88 c -6.03,-4.87 -11.97,-9.8 -17.84,-14.8 c 0.11,-0.51 0.42,-0.81 0.94,-0.91 c 35.2,-5.71 70.39,-11.45 105.58,-17.2 c 1.24,-0.09 1.92,-0.72 2.06,-1.91 c -0.28,-2.32 -0.57,-4.64 -0.86,-6.96 c -0.02,-1.64 -0.83,-2.42 -2.41,-2.34 c -39.66,4.34 -79.37,9.18 -119.07,13.09 c -2.68,-0.37 -28.16,-24.59 -32.21,-28.28 Z M 210.74,418.01 c -0.01,-0.78 0.29,-1.41 0.91,-1.87 c 116,-43.91 192.82,-150.5 196.99,-274.67 c -0.17,-3.91 3.15,-1.19 4.99,-0.63 c 4.51,3.36 7.18,6.32 13.1,6.85 c 4.05,2.41 5.23,5.29 10.59,3.97 c 4.95,-2.93 9.62,-1.46 15.02,-2.2 c 5.03,-0.28 5.66,3.97 8.74,6.76 c 7.16,1.09 9.4,3.42 15.2,7.1 c 5.82,3.25 12.77,-2.06 19.3,3.7 c 2.21,0.36 7.94,1.76 9.68,0.77 c 1.01,-1.32 2.12,-2.54 3.31,-3.66 c 4.16,-0.44 8.3,-0.31 12.43,0.4 c 15.18,8.5 30.43,16.85 45.75,25.07 c 0.65,0.35 1.2,0.81 1.64,1.4 c 4.81,6.56 2.87,13.88 10.99,18.04 c 4.17,7.05 6.26,14.3 6.48,22.49 c 0.67,3.43 3.91,4.66 6.76,2.54 c 10.01,-10.18 15.4,0.87 17.72,9.98 c 1.17,1.79 2.33,2.74 1.31,5.03 c -4.11,10.28 -14.17,10.27 -16.43,23.46 c -2.2,15.09 32.39,17.75 38.15,26.45 c 2.15,5.64 4.01,8.64 7.94,13.21 c 0.91,1.49 2.1,1.82 3.57,0.99 c 4.57,-2.83 3.24,-8.98 9.1,-9.76 c 4.26,0.02 4.92,-0.43 8.31,-2.59 c 8.09,-11.17 20.84,0.17 25.97,8.37 c 2.98,2.14 9.96,5.31 11.82,0.32 c 0.9,-8.5 -1.35,-9.47 -4.67,-16.23 c -1.31,-5.5 -0.49,-14.61 7.59,-11.78 c 8.47,3.24 10.44,11.04 18.9,14.28 c 4.22,3.9 8.85,12.7 12.01,17.8 c 2.45,5.86 2.5,13.31 6.35,18.44 c 1.64,3.85 -0.29,9.47 -1.38,13.37 c -10.04,11.59 -18.07,14.09 -33.4,13.72 c -1.42,-0.03 -2.52,-0.63 -3.32,-1.82 c -0.44,-0.28 -0.9,-0.3 -1.36,-0.04 c -6.49,6.51 -13.41,16.96 -21.71,21.25 c -2.89,1.18 -4.41,-0.39 -6.02,3 c -5.3,4.69 -11.71,14.93 -15.75,21.14 c -2.56,11.66 -14.76,17.78 -23,25.16 c -4.46,7.89 -14.57,13.73 -21.32,19.68 c -4.73,5.97 -8.3,13.09 -12.77,19.28 c -3.53,3.09 -8.8,3.58 -12.29,6.48 c -6.8,2.3 -14.54,12.12 -19.93,17.2 c -4.65,9.06 -6.32,14.94 -15.14,20.75 c -10.81,6.35 -16.53,16.41 -24.59,25.66 c -11.63,8.89 -19.86,16.12 -28.52,28.34 c -6.3,7 -14.08,9.95 -21.08,15.86 c -1.25,2.78 -2.54,5.55 -3.86,8.31 c -6.38,12.53 -17.53,16.2 -25.72,26.19 c -3.82,8.57 -15.49,13.45 -22.42,19.54 c -3.33,5.64 -6.61,8.5 -11.51,12.62 c -1.11,1.59 -5.23,8.28 -6.56,9.27 c -2,5.97 -16.79,14.73 -21.83,19.28 c -4.47,5.53 -8.96,11.06 -13.48,16.59 c -4.93,4.4 -9.91,8.73 -14.93,13.01 c -2.77,3.05 -3.63,6.47 -5.43,9.69 c -0.41,6.98 -15.34,20.16 -21.46,22.37 c -6.26,1.27 -9.66,2.42 -14.85,6.12 c -4.98,8.02 -12.38,17.78 -15.21,26.92 c -1.31,18.87 -4.11,23.51 -17,36.93 c -7.33,7.46 -13.31,8.16 -22.94,11.21 c -0.65,0.16 -1.29,0.11 -1.9,-0.16 c -4.85,-3.96 -13.4,-20.44 -17.37,-26.59 c -3.23,-4.39 -2,-9.16 -0.29,-13.89 c 1.71,-3.36 5.15,-7 5.66,-10.76 c 0.46,-0.73 0.84,-1.49 1.14,-2.29 c -0.09,-2.35 -2.94,-6.63 -3.79,-8.91 c -3.17,-10.4 -5.34,-22.04 -8.76,-32.16 c -1.05,-5.43 2.84,-6.13 4.53,-10.25 c 9.43,-7.47 12.3,-19.8 12.93,-31.42 c -0.24,-8.35 -11.72,-16.73 -16.04,-23.63 c -0.67,-6.53 1.7,-15.52 1.24,-22.53 c -1.94,-4.75 -8.16,-14.88 -11.7,-19.14 c -0.63,-2.76 4.51,-11.16 5.88,-13.97 c 3.02,-6.84 1.49,-11.6 1.71,-18.88 c -0.66,-4.73 -3.58,-13.23 -2.28,-17.67 c 6.46,-6.8 3.65,-12.97 2.23,-21.19 c -0.96,-7.36 -7.43,-15.76 -4.26,-22.98 c 3.44,-8.72 3.09,-16 2.81,-25.21 c -1.66,-3.91 -3.1,-7.91 -4.31,-11.98 c 0.54,-6.09 1.59,-12.09 3.15,-18 c 0.55,-8.96 -1.34,-19.22 -4.55,-27.53 c -1.23,-1.75 -3.41,-3.2 -4.35,-5.67 c -3.66,-3.91 -10.2,-11.07 -12.42,-16.3 Z M 1992.38,329 c 0.31,-24.29 3.24,-46.04 12.34,-68.71 c 20.81,-50.59 66.01,-75.85 119.78,-75.36 c 60.72,-1.13 117.27,39.46 121.72,102.6 c 0.21,1.42 -0.38,2.15 -1.77,2.2 c -17.9,0 -35.81,-0.03 -53.71,-0.08 c -0.68,-0.33 -1.13,-0.86 -1.34,-1.6 c -9.78,-59.08 -85.63,-74.88 -119.62,-26.68 c -23.39,34.91 -23.5,92.63 -3.79,129.13 c 29.88,52.61 110.97,43.52 123.61,-17.49 c 0.16,-0.72 0.54,-1.26 1.15,-1.64 c 18.44,-0.16 36.87,-0.1 55.3,0.17 c 0.32,0.44 0.45,0.94 0.37,1.5 c -2.52,23.46 -11.5,44.11 -26.94,61.94 c -33.39,36.37 -85.4,43.84 -131.83,33.79 c -69.41,-17.54 -93.17,-73.35 -95.27,-139.77 Z M 810.06,465 c -0.03,-91.46 0.01,-182.92 0.1,-274.38 c 0.6,-0.7 1.37,-0.99 2.32,-0.86 c 39.34,0.01 78.68,0.01 118.02,0.01 c 45.23,-1.48 89.14,23.24 85.61,73.73 c -2.12,28.65 -23.18,50.97 -51.29,55.92 c -0.87,0.9 -0.65,1.45 0.65,1.65 c 41.37,4.26 69.09,36.47 63.51,78.43 c -5.42,47.33 -48.25,67.73 -91.48,68.49 c -41.67,0.01 -83.34,0.02 -125.02,0.02 c -2.49,0.24 -2.57,-0.82 -2.42,-3.01 Z M 2278.69,193 c -0.04,-1.36 -0.24,-3.34 1.75,-3.24 c 17.36,0.02 34.72,0.01 52.08,-0.01 c 0.97,-0.15 1.76,0.13 2.38,0.84 c 0.15,92.26 0.14,184.53 -0.03,276.79 c -0.16,0.17 -0.33,0.34 -0.49,0.51 c -17.96,0.14 -35.93,0.2 -53.91,0.16 c -1.02,0.02 -1.61,-0.47 -1.77,-1.48 c 0,-91.19 -0.01,-182.38 -0.01,-273.57 Z M 1263.1,301 c -0.06,-13.09 0.01,-26.17 0.21,-39.24 c 0.62,-0.51 1.35,-0.71 2.18,-0.6 c 8.35,0 16.71,0 25.06,0.01 c 0.62,0.03 1.12,-0.21 1.48,-0.71 c 0.19,-14.97 0.25,-29.94 0.17,-44.93 c -0.05,-0.94 0.37,-1.54 1.26,-1.81 c 17.35,-0.11 34.69,-0.16 52.04,-0.13 c 1.4,-0.02 3.55,-0.09 3.3,1.94 c -0.08,14.99 -0.02,29.96 0.17,44.93 c 0.36,0.5 0.86,0.74 1.48,0.71 c 11.35,-0.01 22.71,-0.01 34.06,-0.01 c 0.84,-0.13 1.58,0.07 2.22,0.58 c 0.28,13.83 0.27,27.67 -0.03,41.5 c -0.64,0.48 -1.37,0.66 -2.19,0.54 c -11.36,0 -22.71,0 -34.07,-0.01 c -1.46,0.29 -2.02,1.19 -1.68,2.71 c 0.02,31.34 0.03,62.68 0.02,94.02 c -2.47,35.88 35.84,21.82 37.9,25.23 c 0.13,13.22 0.13,26.44 0.02,39.66 c -0.03,0.47 -0.23,0.85 -0.61,1.12 c -2.51,0.56 -5.04,1.01 -7.59,1.36 c -40.4,4.36 -84.61,-0.33 -86.09,-50.42 c -0.13,-37.65 -0.26,-75.29 -0.37,-112.93 c -0.35,-0.52 -0.85,-0.77 -1.48,-0.75 c -8.67,0.02 -17.34,0.01 -26.02,-0.02 c -1.66,0.14 -1.37,-1.66 -1.44,-2.75 Z M 1403.1,301 c -0.06,-13.09 0.01,-26.17 0.21,-39.24 c 0.62,-0.51 1.35,-0.71 2.18,-0.6 c 8.35,0 16.71,0 25.06,0.01 c 0.62,0.03 1.12,-0.21 1.48,-0.71 c 0.19,-14.97 0.25,-29.94 0.17,-44.93 c -0.05,-0.94 0.37,-1.54 1.26,-1.81 c 17.35,-0.11 34.69,-0.16 52.04,-0.13 c 1.4,-0.02 3.55,-0.09 3.3,1.94 c -0.08,14.99 -0.02,29.96 0.17,44.93 c 0.36,0.5 0.86,0.74 1.48,0.71 c 11.35,-0.01 22.71,-0.01 34.06,-0.01 c 0.84,-0.13 1.58,0.07 2.22,0.58 c 0.28,13.83 0.27,27.67 -0.03,41.5 c -0.64,0.48 -1.37,0.66 -2.19,0.54 c -11.36,0 -22.71,0 -34.07,-0.01 c -1.46,0.29 -2.02,1.19 -1.68,2.71 c 0.02,31.34 0.03,62.68 0.02,94.02 c -2.47,35.88 35.84,21.82 37.9,25.23 c 0.13,13.22 0.13,26.44 0.02,39.66 c -0.03,0.47 -0.23,0.85 -0.61,1.12 c -2.51,0.56 -5.04,1.01 -7.59,1.36 c -40.4,4.36 -84.61,-0.33 -86.09,-50.42 c -0.13,-37.65 -0.26,-75.29 -0.37,-112.93 c -0.35,-0.52 -0.85,-0.77 -1.48,-0.75 c -8.67,0.02 -17.34,0.01 -26.02,-0.02 c -1.66,0.14 -1.37,-1.66 -1.44,-2.75 Z M 868.39,237 c 0.01,22.14 0.01,44.29 -0.02,66.43 c -0.28,1.95 1.8,1.88 3.12,1.88 c 24.38,-1.69 59.35,6.08 78.4,-12.93 c 14.3,-15.94 12.26,-42.72 -7.26,-53.52 c -7.29,-3.57 -15,-5.47 -23.13,-5.71 c -16.33,-0.08 -32.67,-0.1 -49.01,-0.07 c -2.81,-0.3 -1.96,2.09 -2.1,3.92 Z M 1049.86,367 c -0.38,-17.81 2.59,-35.04 8.91,-51.69 c 21.78,-56.67 89.99,-72.6 141.2,-46.6 c 33.6,19.35 45.56,49.44 47.71,86.79 c 0.2,7.2 0.13,14.39 -0.2,21.56 c -0.92,0.49 -1.92,0.68 -2.98,0.57 c -46.02,-0.04 -92.04,-0.01 -138.06,0.07 c -0.94,0.23 -1.39,0.83 -1.34,1.81 c -0.3,11.33 2.49,21.83 8.37,31.5 c 16.87,25.78 60.03,26.85 77.15,1.27 c 1.32,-2.45 2.64,-4.88 3.97,-7.27 c 16.3,-0.24 32.61,-0.32 48.93,-0.25 c 1.05,-0.04 2.64,0.09 2.24,1.59 c -10.91,56.17 -71.13,73.38 -121.12,63.43 c -50.94,-10.98 -74.89,-52.94 -74.78,-102.78 Z M 1547.86,367 c -0.38,-17.81 2.59,-35.04 8.91,-51.69 c 21.78,-56.67 89.99,-72.6 141.2,-46.6 c 33.6,19.35 45.56,49.44 47.71,86.79 c 0.2,7.2 0.13,14.39 -0.2,21.56 c -0.92,0.49 -1.92,0.68 -2.98,0.57 c -46.02,-0.04 -92.04,-0.01 -138.06,0.07 c -0.94,0.23 -1.39,0.83 -1.34,1.81 c -0.3,11.33 2.49,21.83 8.37,31.5 c 16.87,25.78 60.03,26.85 77.15,1.27 c 1.31,-2.45 2.64,-4.88 3.97,-7.27 c 16.3,-0.24 32.61,-0.32 48.93,-0.25 c 1.05,-0.04 2.64,0.09 2.24,1.59 c -10.91,56.17 -71.13,73.38 -121.12,63.43 c -50.94,-10.98 -74.89,-52.94 -74.78,-102.78 Z M 2365.33,408 c 1.64,-45.22 39.14,-58.47 78.17,-61.84 c 17.68,-0.87 35.35,-1.92 53.02,-3.14 c 0.56,0.01 0.99,-0.22 1.29,-0.68 c 1.93,-22.48 -3.08,-39.9 -28.34,-43.13 c -18.74,-1.84 -38.3,4.28 -43.21,24.46 c -0.22,0.45 -0.57,0.75 -1.04,0.91 c -16.22,0.03 -32.44,0.06 -48.66,0.06 c -1.32,-0.05 -1.89,-0.75 -1.7,-2.12 c 4.45,-55.05 64.25,-70.98 110.64,-64.4 c 34.39,5.01 63.91,24.41 67.51,61.38 c 0.21,48.67 0.3,97.35 0.24,146.02 c 0.15,0.97 -0.13,1.77 -0.82,2.4 c -17.62,0.16 -35.23,0.15 -52.83,-0.01 c -0.5,-0.32 -0.74,-0.77 -0.72,-1.37 c 0.01,-9.35 0,-18.7 -0.02,-28.05 c 0.23,-2.14 -0.36,-2.45 -1.75,-0.93 c -31.74,54.72 -131.01,41.77 -131.78,-29.56 Z M 2783.86,367 c -0.38,-17.81 2.59,-35.04 8.91,-51.69 c 21.78,-56.67 89.99,-72.6 141.2,-46.6 c 33.6,19.35 45.56,49.44 47.71,86.79 c 0.2,7.2 0.13,14.39 -0.2,21.56 c -0.92,0.49 -1.92,0.68 -2.98,0.57 c -46.02,-0.04 -92.04,-0.01 -138.06,0.07 c -0.94,0.23 -1.39,0.83 -1.34,1.81 c -0.3,11.33 2.49,21.83 8.37,31.5 c 16.87,25.78 60.03,26.85 77.15,1.27 c 1.31,-2.45 2.64,-4.88 3.97,-7.27 c 16.3,-0.24 32.61,-0.32 48.93,-0.25 c 1.05,-0.04 2.64,0.09 2.24,1.59 c -10.91,56.17 -71.13,73.38 -121.12,63.43 c -50.94,-10.98 -74.89,-52.94 -74.78,-102.78 Z M 1774.21,465 c -0.03,-67.75 0.01,-135.51 0.12,-203.26 c 0.7,-1.03 2.13,-0.36 3.17,-0.58 c 16.91,-0.07 33.81,0 50.72,0.2 c 0.51,0.6 0.72,1.31 0.62,2.13 c -0.01,10.67 0,21.35 0.02,32.03 c -0.11,0.87 0.09,1.65 0.6,2.32 c 0.41,-0.25 0.68,-0.61 0.8,-1.09 c 8.36,-28.59 31.59,-43.5 61.21,-37.59 c 1.27,0.37 3.72,0.44 3.57,2.32 c 0.09,15.93 -0.01,31.85 -0.27,47.76 c -3.03,-0.76 -6.13,-1.44 -9.3,-2.04 c -29.93,-4.93 -54.42,10.46 -54.64,42.3 c -0.02,39.26 -0.06,78.52 -0.14,117.78 c -0.57,0.61 -1.3,0.87 -2.17,0.76 c -17.35,0 -34.69,0 -52.04,0 c -2.53,0.23 -2.32,-1.11 -2.27,-3.04 Z M 3131,260 c 0,16.68 0,33.36 0,50.04 c -6.6,-3.78 -21.85,-4.16 -29.5,-2.96 c -22.14,3.03 -34.48,20.87 -34.67,42.42 c -0.02,39.26 -0.06,78.52 -0.14,117.78 c -0.57,0.61 -1.3,0.87 -2.17,0.76 c -17.68,0.01 -35.35,0 -53.02,-0.06 c -0.89,-0.1 -1.32,-0.6 -1.29,-1.51 c -0.03,-68.24 0.01,-136.49 0.12,-204.73 c 0.7,-1.03 2.13,-0.36 3.17,-0.58 c 16.91,-0.07 33.81,0 50.72,0.2 c 0.51,0.6 0.72,1.31 0.62,2.13 c -0.01,10.67 0,21.35 0.02,32.03 c -0.11,0.87 0.09,1.65 0.6,2.32 c 1.86,-4.65 3.88,-9.26 6.06,-13.83 c 11.66,-22.65 35.53,-30.25 59.48,-24.01 Z M 2571.27,261.29 c 19.08,-0.13 38.15,-0.17 57.23,-0.14 c 1.15,-0.15 2.19,0.07 3.14,0.66 c 14.22,51.53 28.36,103.08 42.41,154.65 c 0.66,1.73 1.34,1.76 2.06,0.07 c 14.03,-51.58 28.12,-103.15 42.27,-154.7 c 0.3,-0.39 0.7,-0.59 1.2,-0.6 c 18.64,-0.07 37.27,-0.09 55.91,-0.08 c 1.38,0.12 1.78,0.84 1.19,2.15 c -23.36,68.2 -46.85,136.35 -70.45,204.42 c -0.89,0.27 -1.8,0.38 -2.72,0.33 c -20,0.01 -39.99,-0.02 -59.99,-0.1 c -0.52,-0.05 -0.91,-0.3 -1.16,-0.76 c -23.76,-68.62 -47.45,-137.25 -71.09,-205.9 Z M 1105.97,342 c 0.09,1.19 1.72,0.98 2.52,1.01 c 27.67,-0.02 55.35,-0.02 83.03,0.01 c 1.03,0.03 1.6,-0.45 1.73,-1.45 c -2.82,-57.76 -83.03,-57.04 -87.28,0.43 Z M 1603.97,342 c 0.09,1.19 1.72,0.98 2.52,1.01 c 27.67,-0.02 55.35,-0.02 83.03,0.01 c 1.03,0.03 1.6,-0.45 1.73,-1.45 c -2.82,-57.76 -83.03,-57.04 -87.28,0.43 Z M 2839.97,342 c 0.09,1.19 1.72,0.98 2.52,1.01 c 27.67,-0.02 55.35,-0.02 83.03,0.01 c 1.03,0.03 1.6,-0.45 1.73,-1.45 c -2.82,-57.76 -83.03,-57.04 -87.28,0.43 Z M 868.38,421 c 0.07,1.8 -0.36,3.8 2.16,3.59 c 23.05,-1.16 53.44,3.19 75.15,-4.26 c 32.85,-11.88 33.23,-60.38 0.34,-71.98 c -21.62,-7.73 -51.54,-3.24 -74.54,-4.47 c -1.21,0.04 -3.4,-0.23 -3.11,1.68 c 0.02,25.15 0.02,50.3 0,75.44 Z M 2421.35,405.99 c 1.76,28.36 38.73,28.96 57.68,17.74 c 18.2,-11.1 20.17,-26.22 18.7,-46 c -0.65,-0.49 -1.39,-0.65 -2.22,-0.46 c -19.28,2.93 -48.48,-1.2 -64.83,10.05 c -6.26,4.64 -9.38,10.86 -9.33,18.67 Z M 2456.41,576 c -0.32,-26.43 14.07,-48.12 42.09,-48.78 c 17.53,-0.06 38.16,11.73 39.15,30.99 c -0.73,0.99 -9.26,0.36 -10.89,0.41 c -0.45,-0.2 -0.75,-0.53 -0.91,-0.99 c -4.05,-11.57 -12.17,-18.03 -24.38,-19.39 c -34.03,-1.95 -40.58,42.49 -24.99,64.76 c 10.85,14.18 34.55,14.43 45.55,0.57 c 1.62,-2.51 3.11,-5.07 4.47,-7.68 c 3.34,-0.31 6.7,-0.38 10.07,-0.2 c 0.8,0.14 1.16,0.6 1.06,1.39 c -4.35,15.33 -14.39,24.29 -30.13,26.87 c -31.98,5.07 -51.46,-17.3 -51.09,-47.95 Z M 2254.6,562 c -0.12,-2.17 0,-4.3 0.36,-6.42 c 1.63,-1.54 7.78,0.58 8.91,-1.2 c -0.05,-12.82 0.07,-24.29 15.84,-25.92 c 1.71,-0.19 9.08,-0.53 9.87,1.32 c -0.11,1.37 0.47,7.17 -0.36,7.93 c -2.23,0.16 -4.48,0.24 -6.73,0.22 c -4.37,0.72 -6.71,3.32 -7.02,7.78 c -0.14,1.57 -0.76,8.16 0.24,9.08 c 4.21,0.24 8.43,0.37 12.66,0.38 c 0.51,0.27 0.76,0.71 0.77,1.29 c -0.23,1.42 0.76,7.68 -0.88,8.13 c -3.59,-0.08 -7.19,-0.11 -10.79,-0.07 c -0.97,-0.02 -1.68,0.38 -2.12,1.21 c -0.05,18.26 -0.06,36.53 -0.02,54.8 c 0.14,0.98 -0.15,1.79 -0.89,2.4 c -2.99,0.1 -5.98,0.14 -8.97,0.11 c -0.58,0.04 -1.02,-0.19 -1.34,-0.66 c -0.11,-18.94 -0.18,-37.88 -0.21,-56.83 c -0.56,-1.95 -6.57,-0.73 -8.2,-0.94 c -0.89,-0.62 -1.26,-1.49 -1.12,-2.61 Z M 812.01,621.97 c 11.29,-30.81 22.65,-61.59 34.06,-92.36 c 1.03,-1.28 9.48,-0.58 11.37,-0.51 c 0.45,0.16 0.75,0.45 0.92,0.88 c 11.14,30.24 22.31,60.46 33.5,90.68 c 0.69,1.48 0.25,2.28 -1.32,2.4 c -2.69,-0.03 -5.37,-0.03 -8.06,-0.01 c -0.9,0.11 -1.7,-0.11 -2.38,-0.68 c -3.01,-8.33 -5.96,-16.68 -8.87,-25.05 c -0.56,-1.1 -1.47,-1.52 -2.72,-1.26 c -11.59,-0.06 -23.17,0.02 -34.75,0.23 c -0.42,0.3 -0.7,0.7 -0.82,1.21 c -2.86,8.38 -5.83,16.72 -8.92,25.02 c -1.41,1.05 -8.47,0.29 -10.55,0.52 c -0.79,0.03 -1.28,-0.33 -1.46,-1.07 Z M 2195.95,620 c 0.02,-29.84 0.02,-59.69 0,-89.53 c -0.03,-0.58 0.18,-1.05 0.65,-1.38 c 2.97,-0.16 5.95,-0.22 8.93,-0.18 c 1.47,0.2 2.04,1.06 1.72,2.57 c -0.02,30.03 -0.03,60.05 -0.02,90.08 c 0,0.62 -0.27,1.07 -0.8,1.36 c -2.99,0.11 -5.97,0.15 -8.96,0.13 c -1.87,0.14 -1.5,-1.85 -1.52,-3.05 Z M 2555.95,620 c 0.02,-29.84 0.02,-59.69 0,-89.53 c -0.03,-0.58 0.18,-1.05 0.65,-1.38 c 2.97,-0.16 5.95,-0.22 8.93,-0.18 c 1.47,0.2 2.04,1.06 1.72,2.57 c -0.02,30.03 -0.03,60.05 -0.02,90.08 c 0,0.62 -0.27,1.07 -0.8,1.36 c -2.99,0.11 -5.97,0.15 -8.96,0.13 c -1.87,0.14 -1.5,-1.85 -1.52,-3.05 Z M 1464.68,537 c 0.2,-9.51 13,-9.84 14.12,-0.48 c -0.66,9.35 -13.15,9.86 -14.12,0.48 Z M 1490.92,562 c -0.01,-1.84 0,-3.68 0.02,-5.52 c -0.14,-3.19 8.62,-0.01 9.93,-2.1 c 0.13,-4.63 0.17,-9.26 0.11,-13.9 c 0,-1 0.49,-1.55 1.47,-1.65 c 2.7,0.01 5.4,0 8.1,-0.01 c 0.64,-0.04 1.15,0.19 1.53,0.69 c 0.23,4.64 0.3,9.29 0.21,13.95 c -0.06,0.51 0.09,0.94 0.46,1.3 c 3.88,0.28 7.78,0.41 11.7,0.39 c 0.5,0.03 0.85,0.26 1.07,0.71 c -0.07,1.78 0.72,7.26 -0.59,8.41 c -3.82,0.18 -7.64,0.32 -11.47,0.41 c -0.86,0.32 -1.25,0.95 -1.17,1.88 c 0.01,12.31 0.02,24.63 0.02,36.94 c 0.01,5.15 1.23,9.83 7.23,10.24 c 1.94,-0.11 3.87,0.01 5.76,0.36 c 0.18,2.69 0.27,5.4 0.28,8.15 c -0.11,0.17 -0.22,0.35 -0.33,0.53 c -12.15,2.29 -23.5,0.31 -24.19,-14.28 c -0.04,-14.32 -0.08,-28.63 -0.14,-42.95 c -0.89,-2.36 -7.86,-0.09 -9.69,-1.31 c -0.23,-0.73 -0.33,-1.48 -0.31,-2.24 Z M 2071.92,562 c -0.01,-1.84 0,-3.68 0.02,-5.52 c -0.14,-3.19 8.62,-0.01 9.93,-2.1 c 0.13,-4.63 0.17,-9.26 0.11,-13.9 c 0,-1 0.49,-1.55 1.47,-1.65 c 2.7,0.01 5.4,0 8.1,-0.01 c 0.64,-0.04 1.15,0.19 1.53,0.69 c 0.23,4.64 0.3,9.29 0.21,13.95 c -0.06,0.51 0.09,0.94 0.46,1.3 c 3.88,0.28 7.78,0.41 11.7,0.39 c 0.5,0.03 0.85,0.26 1.07,0.71 c -0.07,1.78 0.72,7.26 -0.59,8.41 c -3.82,0.18 -7.64,0.32 -11.47,0.41 c -0.86,0.32 -1.25,0.95 -1.17,1.88 c 0.01,12.31 0.02,24.63 0.02,36.94 c 0.01,5.15 1.23,9.83 7.23,10.24 c 1.94,-0.11 3.87,0.01 5.76,0.36 c 0.18,2.69 0.27,5.4 0.28,8.15 c -0.11,0.17 -0.22,0.35 -0.33,0.53 c -12.15,2.29 -23.5,0.31 -24.19,-14.28 c -0.04,-14.32 -0.08,-28.63 -0.14,-42.95 c -0.89,-2.36 -7.86,-0.09 -9.69,-1.31 c -0.23,-0.73 -0.33,-1.48 -0.31,-2.24 Z M 837.21,585.78 c 9.44,0.25 18.88,0.33 28.32,0.26 c 0.58,0.03 1.02,-0.19 1.32,-0.67 c -4.44,-13.33 -9.02,-26.64 -13.73,-39.91 c -0.71,-1.59 -1.37,-1.55 -2,0.12 c -4.73,13.37 -9.36,26.77 -13.91,40.2 Z M 936.02,589 c -0.85,-41.68 52.56,-47.21 59.55,-12.61 c -0.63,1.86 -7.43,0.68 -9.1,1 c -0.64,0 -1.22,-0.17 -1.76,-0.5 c -0.73,-1.88 -1.6,-3.7 -2.61,-5.46 c -6.32,-9.19 -19.54,-9.83 -27.51,-2.34 c -11.79,13.15 -9.48,43.71 11.91,44.97 c 9.05,0.43 15.05,-3.63 17.99,-12.16 c 0.74,-1.59 8.3,-0.54 10.01,-0.81 c 0.51,-0.01 0.91,0.19 1.19,0.61 c -4.91,33.38 -61.34,30.26 -59.67,-12.7 Z M 1009.02,589 c -0.95,-51 73.65,-45.39 61.78,10.46 c -8.19,37.52 -63.19,31.54 -61.78,-10.46 Z M 1088.21,620 c -0.04,-21.41 0.01,-42.83 0.14,-64.24 c 0.71,-1.31 8.4,-0.54 10,-0.58 c 0.49,0.29 0.72,0.72 0.71,1.3 c -0.14,2.81 0.01,5.58 0.45,8.32 c 7.46,-11.62 23.87,-15.32 34.02,-4.82 c 1.53,1.86 2.9,3.82 4.1,5.89 c 0.48,-0.01 0.84,-0.22 1.09,-0.65 c 10.36,-17.21 38.79,-14.73 42.2,6.28 c 0.25,16.68 0.33,33.36 0.25,50.05 c -0.09,0.99 -0.64,1.49 -1.64,1.5 c -2.69,-0.02 -5.37,-0.02 -8.06,0 c -0.58,0.03 -1.05,-0.18 -1.38,-0.65 c -0.16,-14.3 -0.22,-28.6 -0.17,-42.9 c 1.31,-20.74 -29.76,-21.45 -29.41,2 c -0.02,13.58 0,27.17 0.06,40.75 c -0.11,0.17 -0.22,0.33 -0.33,0.5 c -3.24,0.29 -6.49,0.38 -9.76,0.27 c -0.57,0.02 -1,-0.2 -1.3,-0.67 c -0.04,-15.94 -0.15,-31.88 -0.35,-47.82 c -4.31,-17.32 -30.06,-12.27 -28.99,6.97 c 0.03,13.6 0,27.21 -0.1,40.81 c -0.27,0.46 -0.68,0.69 -1.23,0.69 c -3.01,0.05 -6.01,0.05 -9.01,-0.02 c -1.72,0.03 -1.21,-1.89 -1.29,-2.98 Z M 1201.21,620 c -0.04,-21.41 0.01,-42.83 0.14,-64.24 c 0.71,-1.31 8.4,-0.54 10,-0.58 c 1.67,0.81 -0.08,7.59 1.19,9.59 c 7.32,-12.09 23.68,-14.8 33.99,-4.79 c 1.53,1.86 2.9,3.82 4.1,5.89 c 0.48,-0.01 0.84,-0.22 1.09,-0.65 c 10.36,-17.21 38.79,-14.73 42.2,6.28 c 0.25,16.68 0.33,33.36 0.25,50.05 c -0.09,0.99 -0.64,1.49 -1.64,1.5 c -2.69,-0.02 -5.37,-0.02 -8.06,0 c -0.58,0.03 -1.05,-0.18 -1.38,-0.65 c -0.16,-14.3 -0.22,-28.6 -0.17,-42.9 c 1.31,-20.74 -29.76,-21.45 -29.41,2 c -0.02,13.58 0,27.17 0.06,40.75 c -0.11,0.17 -0.22,0.33 -0.33,0.5 c -3.24,0.29 -6.49,0.38 -9.76,0.27 c -0.57,0.02 -1,-0.2 -1.3,-0.67 c -0.04,-15.94 -0.15,-31.88 -0.35,-47.82 c -4.31,-17.32 -30.06,-12.27 -28.99,6.97 c 0.03,13.6 0,27.21 -0.1,40.81 c -0.27,0.46 -0.68,0.69 -1.23,0.69 c -3.01,0.05 -6.01,0.05 -9.01,-0.02 c -1.72,0.03 -1.21,-1.89 -1.29,-2.98 Z M 1389.21,620 c -0.04,-21.41 0.01,-42.83 0.14,-64.24 c 0.71,-1.31 8.4,-0.54 10,-0.58 c 1.82,1.1 -0.28,8.25 1.25,9.46 c 1.34,-1.47 2.67,-2.96 4,-4.47 c 14.25,-12.28 38.9,-6.37 40.46,14.33 c 0.25,15.69 0.33,31.38 0.24,47.07 c -0.16,1.01 -0.75,1.5 -1.77,1.48 c -2.69,-0.02 -5.37,-0.02 -8.06,0 c -0.58,0.03 -1.03,-0.19 -1.36,-0.66 c -0.14,-13.96 -0.19,-27.92 -0.15,-41.89 c 0.2,-24.26 -33.91,-20.49 -33.1,2 c 0.01,13.27 -0.03,26.54 -0.12,39.81 c -0.27,0.46 -0.68,0.69 -1.23,0.69 c -3.01,0.05 -6.01,0.05 -9.01,-0.02 c -1.72,0.03 -1.21,-1.89 -1.29,-2.98 Z M 1646.21,620 c -0.04,-21.41 0.01,-42.83 0.14,-64.24 c 0.71,-1.31 8.4,-0.54 10,-0.58 c 1.79,1.08 -0.19,7.73 1.16,9.63 c 4,-7.91 9.88,-11.56 18.97,-10.73 c 1.36,0.18 1.97,0.98 1.82,2.39 c 0,2.37 0.01,4.74 0.01,7.11 c 0.01,0.65 -0.26,1.13 -0.81,1.44 c -10.29,-0.3 -19.57,1.97 -19.61,14.48 c -0.02,14.27 -0.06,28.54 -0.15,42.81 c -0.27,0.46 -0.68,0.69 -1.23,0.69 c -3.01,0.05 -6.01,0.05 -9.01,-0.02 c -1.72,0.03 -1.21,-1.89 -1.29,-2.98 Z M 1768.21,620 c -0.04,-21.41 0.01,-42.83 0.14,-64.24 c 0.71,-1.31 8.4,-0.54 10,-0.58 c 1.81,1.1 -0.27,8.28 1.23,9.48 c 1.35,-1.47 2.69,-2.97 4.02,-4.49 c 14.25,-12.28 38.9,-6.37 40.46,14.33 c 0.25,15.69 0.33,31.38 0.24,47.07 c -0.16,1.01 -0.75,1.5 -1.77,1.48 c -2.69,-0.02 -5.37,-0.02 -8.06,0 c -0.58,0.03 -1.03,-0.19 -1.36,-0.66 c -0.14,-13.96 -0.19,-27.92 -0.15,-41.89 c 0.2,-24.26 -33.91,-20.49 -33.1,2 c 0.01,13.27 -0.03,26.54 -0.12,39.81 c -0.27,0.46 -0.68,0.69 -1.23,0.69 c -3.01,0.05 -6.01,0.05 -9.01,-0.02 c -1.72,0.03 -1.21,-1.89 -1.29,-2.98 Z M 1876.21,642 c 0,-28.49 0.01,-56.97 0.03,-85.46 c -0.04,-0.51 0.13,-0.92 0.52,-1.24 c 3.2,-0.27 6.39,-0.31 9.6,-0.13 c 0.5,0.29 0.74,0.72 0.74,1.3 c -0.13,3.1 0.02,6.17 0.44,9.21 c 19.34,-25.38 52.18,-7.21 50.71,22.82 c 0.45,16.39 -7.02,32.85 -24.75,35.45 c -8.15,1.09 -15.31,-1.08 -21.46,-6.5 c -1.29,-1.37 -2.5,-2.8 -3.62,-4.28 c -0.4,0.3 -0.58,0.7 -0.57,1.22 c 0.04,10.29 -0.01,20.58 -0.16,30.87 c -0.79,1.05 -9.17,0.41 -10.83,0.3 c -0.97,-0.62 -0.53,-2.57 -0.65,-3.56 Z M 1952.02,589 c -0.95,-51 73.65,-45.39 61.78,10.46 c -8.19,37.52 -63.19,31.54 -61.78,-10.46 Z M 2031.21,620 c -0.04,-21.41 0.01,-42.83 0.14,-64.24 c 0.71,-1.31 8.4,-0.54 10,-0.58 c 1.76,1.06 -0.16,7.86 1.13,9.64 c 4.36,-7.64 9.61,-11.84 19,-10.74 c 1.36,0.18 1.97,0.98 1.82,2.39 c 0,2.37 0.01,4.74 0.01,7.11 c 0.01,0.65 -0.26,1.13 -0.81,1.44 c -10.29,-0.3 -19.57,1.97 -19.61,14.48 c -0.02,14.27 -0.06,28.54 -0.15,42.81 c -0.27,0.46 -0.68,0.69 -1.23,0.69 c -3.01,0.05 -6.01,0.05 -9.01,-0.02 c -1.72,0.03 -1.21,-1.89 -1.29,-2.98 Z M 2119.7,604 c 0.02,-22.02 26.57,-20.02 41.82,-21.02 c 0.83,0.07 1.52,-0.19 2.06,-0.78 c 3.54,-22.21 -25.36,-23.64 -30.31,-8.25 c -0.17,0.39 -0.47,0.64 -0.89,0.75 c -1.58,0.03 -9.31,0.69 -10.05,-0.47 c 1.77,-25.79 48.35,-28.1 52.49,-1.71 c 0.26,16.63 0.29,33.25 0.07,49.87 c -0.33,0.47 -0.78,0.69 -1.36,0.66 c -2.96,0.06 -5.92,-0.01 -8.86,-0.22 c -1.59,-1.28 0.52,-8.26 -1.21,-10.43 c -11.33,18.55 -43.93,14.8 -43.76,-8.4 Z M 2300.02,589 c -0.95,-51 73.65,-45.39 61.78,10.46 c -8.19,37.52 -63.19,31.54 -61.78,-10.46 Z M 2379.21,620 c -0.04,-21.41 0.01,-42.83 0.14,-64.24 c 0.71,-1.31 8.4,-0.54 10,-0.58 c 1.77,1.07 -0.15,7.72 1.17,9.59 c 4.04,-7.9 9.86,-11.51 18.96,-10.69 c 1.36,0.18 1.97,0.98 1.82,2.39 c 0,2.37 0.01,4.74 0.01,7.11 c 0.01,0.65 -0.26,1.13 -0.81,1.44 c -10.29,-0.3 -19.57,1.97 -19.61,14.48 c -0.02,14.27 -0.06,28.54 -0.15,42.81 c -0.27,0.46 -0.68,0.69 -1.23,0.69 c -3.01,0.05 -6.01,0.05 -9.01,-0.02 c -1.72,0.03 -1.21,-1.89 -1.29,-2.98 Z M 2585.7,604 c 0.02,-22.02 26.57,-20.02 41.82,-21.02 c 0.83,0.07 1.52,-0.19 2.06,-0.78 c 3.54,-22.21 -25.36,-23.64 -30.31,-8.25 c -0.17,0.39 -0.47,0.64 -0.89,0.75 c -1.58,0.03 -9.31,0.69 -10.05,-0.47 c 1.77,-25.79 48.35,-28.1 52.49,-1.71 c 0.26,16.63 0.29,33.25 0.07,49.87 c -0.33,0.47 -0.78,0.69 -1.36,0.66 c -2.96,0.06 -5.92,-0.01 -8.86,-0.22 c -1.65,-1.31 0.58,-9.03 -1.18,-10.44 c -11.35,18.54 -43.95,14.83 -43.79,-8.39 Z M 2725.02,589 c 0.42,-49.38 65.7,-45.11 60.05,2.47 c -0.39,0.49 -0.9,0.7 -1.53,0.66 c -15.29,-0.04 -30.59,-0.02 -45.88,0.08 c -1.35,0.6 -0.58,3.18 -0.66,4.3 c 1.55,19.42 28.05,24.54 36,8.03 c 1.19,-1.73 8.54,-0.87 10.55,-0.7 c 0.61,0.79 0.72,1.66 0.33,2.62 c -7.56,21.94 -41.18,23.83 -53.33,4.61 c -3.96,-6.82 -5.8,-14.18 -5.53,-22.07 Z M 2802.21,620 c -0.04,-21.41 0.01,-42.83 0.14,-64.24 c 0.71,-1.31 8.4,-0.54 10,-0.58 c 1.79,1.08 -0.19,7.69 1.18,9.62 c 0.9,-1.64 1.89,-3.23 2.99,-4.76 c 4.29,-4.72 9.61,-6.7 15.96,-5.96 c 1.36,0.18 1.97,0.98 1.82,2.39 c 0,2.37 0.01,4.74 0.01,7.11 c 0.01,0.65 -0.26,1.13 -0.81,1.44 c -10.29,-0.3 -19.57,1.97 -19.61,14.48 c -0.02,14.27 -0.06,28.54 -0.15,42.81 c -0.27,0.46 -0.68,0.69 -1.23,0.69 c -3.01,0.05 -6.01,0.05 -9.01,-0.02 c -1.72,0.03 -1.21,-1.89 -1.29,-2.98 Z M 2848.21,620 c -0.04,-21.41 0.01,-42.83 0.14,-64.24 c 0.71,-1.31 8.4,-0.54 10,-0.58 c 1.81,1.09 -0.25,8.33 1.2,9.52 c 1.36,-1.49 2.71,-3 4.05,-4.53 c 14.25,-12.28 38.9,-6.37 40.46,14.33 c 0.25,15.69 0.33,31.38 0.24,47.07 c -0.16,1.01 -0.75,1.5 -1.77,1.48 c -2.69,-0.02 -5.37,-0.02 -8.06,0 c -0.58,0.03 -1.03,-0.19 -1.36,-0.66 c -0.14,-13.96 -0.19,-27.92 -0.15,-41.89 c 0.2,-24.26 -33.91,-20.49 -33.1,2 c 0.01,13.27 -0.03,26.54 -0.12,39.81 c -0.27,0.46 -0.68,0.69 -1.23,0.69 c -3.01,0.05 -6.01,0.05 -9.01,-0.02 c -1.72,0.03 -1.21,-1.89 -1.29,-2.98 Z M 2921.02,589 c -0.95,-51 73.65,-45.39 61.78,10.46 c -8.19,37.52 -63.19,31.54 -61.78,-10.46 Z M 3000.21,620 c -0.04,-21.41 0.01,-42.83 0.14,-64.24 c 0.71,-1.31 8.4,-0.54 10,-0.58 c 1.81,1.09 -0.25,8.32 1.21,9.47 c 1.37,-1.46 2.71,-2.95 4.04,-4.48 c 14.25,-12.28 38.9,-6.37 40.46,14.33 c 0.25,15.69 0.33,31.38 0.24,47.07 c -0.16,1.01 -0.75,1.5 -1.77,1.48 c -2.69,-0.02 -5.37,-0.02 -8.06,0 c -0.58,0.03 -1.03,-0.19 -1.36,-0.66 c -0.14,-13.96 -0.19,-27.92 -0.15,-41.89 c 0.2,-24.26 -33.91,-20.49 -33.1,2 c 0.01,13.27 -0.03,26.54 -0.12,39.81 c -0.27,0.46 -0.68,0.69 -1.23,0.69 c -3.01,0.05 -6.01,0.05 -9.01,-0.02 c -1.72,0.03 -1.21,-1.89 -1.29,-2.98 Z M 3073.3,604.28 c 3.67,-0.31 7.34,-0.34 11.01,-0.08 c 0.77,1.58 1.55,3.18 2.35,4.78 c 6.63,10.13 32.82,7.23 28.05,-7.34 c -7.42,-13.02 -41.84,-3.46 -39.42,-30.1 c 4.19,-24.42 47.67,-22.96 49.85,1 c 0.02,0.6 -0.23,1.03 -0.76,1.3 c -3.2,0.19 -6.39,0.13 -9.57,-0.19 c -0.61,-1.58 -1.3,-3.15 -2.07,-4.69 c -6.79,-10.59 -32.17,-5.69 -25,8.67 c 9.84,10.78 37.16,4.24 39.01,23.9 c 1.38,28.47 -48.6,31.55 -53.45,2.75 Z M 1312.99,558 c -0.19,-1.06 0.03,-2 0.67,-2.81 c 2.94,-0.12 5.89,-0.17 8.84,-0.14 c 1.48,0.09 2.12,0.9 1.91,2.42 c 0.5,14 -1.13,33.56 0.96,46.84 c 4.98,16.54 32.83,11.78 32.37,-8.81 c -0.06,-13.31 0.04,-26.6 0.31,-39.89 c 0.38,-0.43 0.87,-0.61 1.45,-0.56 c 2.67,0.02 5.34,0.02 8.01,0 c 0.56,-0.04 1.02,0.15 1.36,0.59 c 0.26,22.25 0.27,44.5 0.04,66.76 c -0.89,1.24 -8.52,0.54 -10.22,0.41 c -1.48,-1.23 0.4,-8.12 -1.07,-9.6 c -1.03,1.57 -2.21,3.02 -3.54,4.37 c -14.11,13.47 -40.04,6.3 -40.98,-15.08 c -0.1,-14.83 -0.14,-29.67 -0.11,-44.5 Z M 1465.95,620 c 0.01,-21.17 0.02,-42.35 0.03,-63.52 c 0.06,-0.94 0.56,-1.42 1.51,-1.42 c 2.97,-0.03 5.93,0.01 8.89,0.1 c 0.7,0.6 0.99,1.37 0.86,2.32 c -0.01,21.36 -0.01,42.72 -0.01,64.08 c 0,0.62 -0.27,1.07 -0.8,1.36 c -2.99,0.11 -5.97,0.15 -8.96,0.13 c -1.87,0.14 -1.5,-1.85 -1.52,-3.05 Z M 1537.92,555.99 c 0.08,-0.39 0.32,-0.65 0.7,-0.79 c 1.77,0 10.29,-0.71 11.16,0.51 c 5.83,17.23 11.59,34.49 17.3,51.76 c 0.29,1.17 0.77,2.24 1.42,3.21 c 0.48,-0.45 0.8,-1.01 0.96,-1.67 c 5.86,-17.78 11.78,-35.55 17.77,-53.29 c 0.79,-1.3 8.59,-0.36 10.28,-0.67 c 1.43,0.16 1.8,0.91 1.11,2.23 c -8.7,23.57 -17.36,47.15 -26,70.74 c -4.77,13.55 -11.23,22.22 -27.15,20.1 c -0.58,-0.02 -1.02,-0.27 -1.32,-0.76 c -0.15,-2.59 -0.17,-5.19 -0.05,-7.79 c 0.46,-1.78 4.02,-0.34 5.37,-0.81 c 7.81,0.3 12.34,-10.27 12.67,-16.27 c -8.08,-22.16 -16.16,-44.33 -24.22,-66.5 Z M 1691.99,558 c -0.19,-1.06 0.03,-2 0.67,-2.81 c 2.94,-0.12 5.89,-0.17 8.84,-0.14 c 1.48,0.09 2.12,0.9 1.91,2.42 c 0.5,14 -1.13,33.56 0.96,46.84 c 4.98,16.54 32.83,11.78 32.37,-8.81 c -0.06,-13.31 0.04,-26.6 0.31,-39.89 c 0.38,-0.43 0.87,-0.61 1.45,-0.56 c 2.67,0.02 5.34,0.02 8.01,0 c 0.56,-0.04 1.02,0.15 1.36,0.59 c 0.26,22.25 0.27,44.5 0.04,66.76 c -0.89,1.24 -8.52,0.54 -10.22,0.41 c -1.41,-1.09 0.34,-7.44 -1.09,-9.56 c -11.81,18.41 -43.11,13.53 -44.5,-10.75 c -0.1,-14.83 -0.14,-29.67 -0.11,-44.5 Z M 2654.92,555.99 c 0.08,-0.39 0.32,-0.65 0.7,-0.79 c 1.77,0.01 10.21,-0.76 11.05,0.59 c 5.96,17.76 11.95,35.5 17.96,53.24 c 0.68,0.89 1.19,0.77 1.51,-0.36 c 5.9,-17.71 11.89,-35.38 17.98,-53.01 c 1.03,-1.15 9.34,-0.52 11.19,-0.43 c 0.12,0.15 0.24,0.29 0.36,0.44 c -7.94,22.4 -16.13,44.71 -24.58,66.92 c -1.54,0.91 -7.53,0.24 -9.61,0.45 c -0.89,0.1 -1.65,-0.14 -2.29,-0.73 c -8.2,-22.07 -16.28,-44.17 -24.27,-66.32 Z M 1020.73,589 c -0.34,10.81 4.05,22.49 15.8,24.8 c 19.14,3.01 25.32,-14.52 23.4,-30.3 c -2.85,-28.05 -40.53,-25.73 -39.2,5.5 Z M 1887.8,589 c -0.55,13.57 7.41,27.2 22.69,24.89 c 17.36,-3.86 19.01,-25.48 13.23,-39.19 c -11.52,-21.23 -37.4,-8.91 -35.92,14.3 Z M 1963.73,589 c -0.34,10.81 4.05,22.49 15.8,24.8 c 19.14,3.01 25.32,-14.52 23.4,-30.3 c -2.85,-28.05 -40.53,-25.73 -39.2,5.5 Z M 2311.73,589 c -0.33,10.81 4.05,22.49 15.8,24.8 c 19.14,3.01 25.32,-14.52 23.4,-30.3 c -2.85,-28.05 -40.53,-25.73 -39.2,5.5 Z M 2737.01,581.99 c -0.04,1.27 1.64,1.19 2.47,1.19 c 10.68,-0.02 21.36,-0.03 32.05,-0.02 c 0.8,0.03 1.47,-0.24 2,-0.81 c -1.03,-24.46 -34.3,-24.53 -36.52,-0.36 Z M 2932.73,589 c -0.34,10.81 4.05,22.49 15.8,24.8 c 19.14,3.01 25.32,-14.52 23.4,-30.3 c -2.85,-28.05 -40.53,-25.73 -39.2,5.5 Z M 2131.16,603.99 c 0.96,17.01 35.56,13.6 32.48,-11.25 c -0.22,-0.48 -0.6,-0.73 -1.14,-0.77 c -9.78,0.18 -30.41,-1.5 -31.34,12.02 Z M 2597.16,603.99 c 0.96,17.01 35.56,13.6 32.48,-11.25 c -0.22,-0.48 -0.6,-0.73 -1.14,-0.77 c -9.78,0.18 -30.41,-1.5 -31.34,12.02 Z"/></g>
</svg>
